<svg id="Camada_1" data-name="Camada 1" xmlns="http://www.w3.org/2000/svg" viewBox="0 0 524.41 209.42"><defs><style>.cls-1{fill:#fff;}</style></defs><path class="cls-1" d="M461.19,47.47c-3.2-2.2-7.3-3.3-12.2-3.3a20.45,20.45,0,0,0-16.6,7.7V13H413v110.5c-.2,3.2-1.4,6-5,7a21.48,21.48,0,1,0,17.2,37.6h0l.2-.2,1.5-1.5a4.09,4.09,0,0,1,2.6-1.1,4.26,4.26,0,0,1,3.3,1.2,20.57,20.57,0,0,0,16.1,7.1h.8a21.15,21.15,0,0,0,11.6-3.3,19.14,19.14,0,0,0,6.8-7.5c1.2-2.6,1.8-7,1.9-13.2V69.07c0-6.7-.7-11.4-2-14.1A19.14,19.14,0,0,0,461.19,47.47Zm-49.8,115.2a11,11,0,1,1,11-11A11,11,0,0,1,411.39,162.67Zm39.3-23.4v7.4a7.54,7.54,0,0,1-2.4,5.8,8.67,8.67,0,0,1-7.7,2.2,11.79,11.79,0,0,1-8.1-6V68.87c2.6-3.4,5.3-5.4,8.1-5.8a9,9,0,0,1,7.7,2.2,7.54,7.54,0,0,1,2.4,5.8Z"/><path class="cls-1" d="M499.09,51.67v-6.8H480v127.6h19.1V68.67c2.8-3.4,5.7-5.4,8.6-5.8a9.92,9.92,0,0,1,8.1,2.2V43.67A20.6,20.6,0,0,0,499.09,51.67Z"/><path class="cls-1" d="M64.09,145.37a27.79,27.79,0,0,1-8.3,20.2,27.11,27.11,0,0,1-20.1,8.4,28.1,28.1,0,0,1-20.4-8.4,27.3,27.3,0,0,1-8.6-20.2V73a27.49,27.49,0,0,1,8.4-20.2,27.62,27.62,0,0,1,20.3-8.3,28,28,0,0,1,20.3,8.3,27.43,27.43,0,0,1,8.4,20.1V118H44.89V72.27a9.56,9.56,0,0,0-9.4-9.4,9.43,9.43,0,0,0-6.8,2.7,8.76,8.76,0,0,0-2.8,6.7v73.6a8.76,8.76,0,0,0,2.8,6.7,9.43,9.43,0,0,0,6.8,2.7,9.56,9.56,0,0,0,9.4-9.5v-7.2h19.2v6.8Z"/><path class="cls-1" d="M131.89,145.37a27.79,27.79,0,0,1-8.3,20.2,27.11,27.11,0,0,1-20.1,8.4,28.22,28.22,0,0,1-20.5-8.2,27,27,0,0,1-8.5-20.3V73.07a28.51,28.51,0,0,1,28.7-28.5,28,28,0,0,1,20.3,8.3,27.43,27.43,0,0,1,8.4,20.1v52.9H93.79v20a9.56,9.56,0,0,0,9.4,9.4,9.43,9.43,0,0,0,6.8-2.7,9,9,0,0,0,2.8-6.8v-7.2H132v6.8Zm-19.1-37.2V72.47a8.76,8.76,0,0,0-2.8-6.7,9.43,9.43,0,0,0-6.8-2.7,9.56,9.56,0,0,0-9.4,9.4v35.7Z"/><path class="cls-1" d="M239.89,145.47a27.79,27.79,0,0,1-8.3,20.2,27.11,27.11,0,0,1-20.1,8.4,24.9,24.9,0,0,1-11.2-2.9c-4.3-2.1-7.1-4.7-8.3-7.8-1.2,3.1-3.8,5.7-7.7,7.7a24.83,24.83,0,0,1-11.3,3,28.1,28.1,0,0,1-20.4-8.4,27.3,27.3,0,0,1-8.6-20.2V44.57h19.4v101.5a9,9,0,0,0,2.8,6.6,8.85,8.85,0,0,0,6.6,2.8,9.43,9.43,0,0,0,6.8-2.7,8.76,8.76,0,0,0,2.8-6.7V44.57h19.2v101.5a8.85,8.85,0,0,0,2.9,6.7,9.6,9.6,0,0,0,6.8,2.7,9.39,9.39,0,0,0,9.5-9.4V44.57H240v100.9Z"/><path class="cls-1" d="M308.79,145.37a27.79,27.79,0,0,1-8.3,20.2,27.11,27.11,0,0,1-20.1,8.4,28.22,28.22,0,0,1-20.5-8.2,27,27,0,0,1-8.5-20.3V73.07a28.51,28.51,0,0,1,28.7-28.5,28,28,0,0,1,20.3,8.3,27.43,27.43,0,0,1,8.4,20.1v52.9h-38.1v20a9.56,9.56,0,0,0,9.4,9.4,9.43,9.43,0,0,0,6.8-2.7,9,9,0,0,0,2.8-6.8v-7.2h19.2v6.8Zm-19.2-37.2V72.47a8.76,8.76,0,0,0-2.8-6.7,9.43,9.43,0,0,0-6.8-2.7,9.56,9.56,0,0,0-9.4,9.4v35.7Z"/><path class="cls-1" d="M375.59,55.27a20.59,20.59,0,0,0-6.8-7.5c-3.2-2.2-7.3-3.3-12.2-3.3a20.45,20.45,0,0,0-16.6,7.7V13.27h-19.4v159.5h19.2v-6.7a26.23,26.23,0,0,0,5.7,5,20.25,20.25,0,0,0,8.5,2.7h.3a16.2,16.2,0,0,0,2.2.1,13.42,13.42,0,0,0,2.1-.1,20.89,20.89,0,0,0,10.3-3.2,18.4,18.4,0,0,0,6.8-7.5c1.2-2.6,1.8-7,1.9-13.2V69.37C377.59,62.77,376.89,58,375.59,55.27Zm-17.2,91.5a7.5,7.5,0,0,1-3.1,6.5,9.31,9.31,0,0,1-7.2,1.6c-2.9-.4-5.7-2.4-8.3-5.8V69.27c2.6-3.4,5.4-5.4,8.3-5.8a9.41,9.41,0,0,1,7.2,1.6,7.62,7.62,0,0,1,3.1,6.5Z"/></svg>