<svg id="Camada_1" data-name="Camada 1" xmlns="http://www.w3.org/2000/svg" viewBox="0 0 315.75 209.42"><defs><style>.cls-1{fill:#fff;}</style></defs><path class="cls-1" d="M252.17,47.42a21,21,0,0,0-12.1-3.3,20.12,20.12,0,0,0-16.5,7.7V13h-19.3v110.2c-.2,3.2-1.4,6-4.9,7a21.38,21.38,0,1,0,17.2,37.4h0l.2-.2c.5-.5,1-.9,1.5-1.5a4.09,4.09,0,0,1,2.6-1.1,4.26,4.26,0,0,1,3.3,1.2,20.51,20.51,0,0,0,16,7.1h.8a21.15,21.15,0,0,0,11.6-3.3,18.52,18.52,0,0,0,6.7-7.4c1.2-2.6,1.8-7,1.9-13.2V68.92c0-6.7-.7-11.4-2-14.1A22.13,22.13,0,0,0,252.17,47.42Zm-49.6,114.9a11,11,0,1,1,11-11A11,11,0,0,1,202.57,162.32Zm39.1-23.4v7.4a7.54,7.54,0,0,1-2.4,5.8,8.67,8.67,0,0,1-7.7,2.2c-2.8-.4-5.9-2.4-8.1-6V68.82c2.6-3.4,5.3-5.4,8.1-5.8a9,9,0,0,1,7.7,2.2,7.54,7.54,0,0,1,2.4,5.8Z"/><path class="cls-1" d="M290.07,51.62v-6.8H271V172h19.1V68.52c2.8-3.4,5.6-5.3,8.6-5.8a9.92,9.92,0,0,1,8.1,2.2V43.62A20.34,20.34,0,0,0,290.07,51.62Z"/><path class="cls-1" d="M39.57,44.52a27.79,27.79,0,0,0-20.2,8.3,27,27,0,0,0-8.4,20v72a26.87,26.87,0,0,0,8.6,20.1,28.34,28.34,0,0,0,20.3,8.3,27,27,0,0,0,20-8.4,27.76,27.76,0,0,0,8.2-20.3v-6.7H48.87v7.3a9.29,9.29,0,0,1-2.8,6.8,9.07,9.07,0,0,1-13.2.1,9.24,9.24,0,0,1-2.8-6.6V72a9,9,0,0,1,2.8-6.6,8.91,8.91,0,0,1,6.7-2.8,8.64,8.64,0,0,1,6.5,2.8,9.24,9.24,0,0,1,2.8,6.6v45.6h19.2v-45a27,27,0,0,0-8.4-20A27.45,27.45,0,0,0,39.57,44.52Z"/><path class="cls-1" d="M118,51.92a20.77,20.77,0,0,0-16.8-7.8,21,21,0,0,0-12.1,3.3,18.52,18.52,0,0,0-6.7,7.4c-1.3,2.7-1.9,7.4-1.9,14h0v79.4c0,6.7.6,11.4,1.9,14.1a19.29,19.29,0,0,0,6.7,7.4,21,21,0,0,0,12.1,3.3,20.77,20.77,0,0,0,16.8-7.8v13a9,9,0,0,1-2.8,6.8,9.29,9.29,0,0,1-6.7,2.8,8.75,8.75,0,0,1-6.6-2.8,9.28,9.28,0,0,1-2.6-6.7H80.47a23.53,23.53,0,0,0,8.1,18.5c5.4,4.7,12.1,7.1,20.1,7.1s14.8-2.4,20.2-7.1,8.2-10.9,8.2-18.7V44.62h-19.2v7.3Zm0,96.6c-2.8,3.4-5.7,5.4-8.6,5.8a9,9,0,0,1-7.9-2.2,7.76,7.76,0,0,1-2.2-5.8V71.12a7.81,7.81,0,0,1,2.8-6.1c1.8-1.7,4.4-2.3,7.6-1.9,2.9.5,5.7,2.4,8.4,5.8v79.6Zm0-96.6Z"/><rect class="cls-1" x="150.07" y="44.92" width="19.2" height="127.4"/><rect class="cls-1" x="150.07" y="13.12" width="19.2" height="18.8"/></svg>