<?xml version="1.0" encoding="utf-8"?>
<!-- Generator: Adobe Illustrator 16.0.0, SVG Export Plug-In . SVG Version: 6.00 Build 0)  -->
<!DOCTYPE svg PUBLIC "-//W3C//DTD SVG 1.1//EN" "http://www.w3.org/Graphics/SVG/1.1/DTD/svg11.dtd">
<svg version="1.1" xmlns="http://www.w3.org/2000/svg" xmlns:xlink="http://www.w3.org/1999/xlink" x="0px" y="0px"
	 width="44.004px" height="28.345px" viewBox="0 0 44.004 28.345" enable-background="new 0 0 44.004 28.345" xml:space="preserve">
<g id="Layer_11">
	<rect fill="none" width="44.004" height="28.345"/>
</g>
<g id="nic.br">
	<g>
		<polygon fill="#010101" points="14.246,4.073 14.246,1.565 11.738,1.565 11.738,4.073 		"/>
		<polygon fill="#010101" points="14.261,22.756 14.261,5.784 11.738,5.784 11.738,22.756 		"/>
		<path fill="#010101" d="M23.392,19.032v-0.885h-2.508v0.943c0,0.324-0.119,0.621-0.383,0.887
			c-0.236,0.234-0.531,0.354-0.855,0.354c-0.354,0-0.65-0.117-0.916-0.383c-0.234-0.236-0.354-0.533-0.354-0.855V9.384
			c0-0.324,0.119-0.619,0.385-0.885c0.234-0.236,0.529-0.355,0.885-0.355c0.324,0,0.619,0.118,0.885,0.385
			c0.234,0.235,0.354,0.531,0.354,0.854v6.047h2.508V9.442c0-1.032-0.381-1.947-1.121-2.685c-0.736-0.708-1.621-1.093-2.654-1.093
			s-1.947,0.385-2.686,1.123C16.193,7.525,15.84,8.41,15.84,9.442l-0.029,9.589c0,1.033,0.383,1.947,1.15,2.686
			c0.738,0.738,1.652,1.098,2.686,1.098s1.918-0.389,2.654-1.125C23.039,20.952,23.392,20.065,23.392,19.032z"/>
		<path fill="#010101" d="M9.951,22.815V9.021c0-0.891-0.09-1.514-0.268-1.898C9.507,6.765,9.21,6.438,8.764,6.143
			C8.319,5.846,7.785,5.697,7.133,5.697c-0.921,0-1.662,0.356-2.227,1.067V5.846h-2.52v16.969h2.52V9.021
			c0.358-0.445,0.742-0.713,1.129-0.771c0.444-0.061,0.803,0.029,1.067,0.296C7.311,8.753,7.43,8.99,7.43,9.316v13.497h2.521V22.815
			z"/>
		<g>
			<path fill="#231F20" d="M34.611,6.224c-0.428-0.295-0.965-0.441-1.609-0.441c-0.916,0-1.648,0.34-2.193,1.023V1.662h-2.562
				v14.624c-0.02,0.422-0.188,0.799-0.656,0.928c-1.361,0.211-2.404,1.387-2.404,2.807c0,1.57,1.271,2.84,2.84,2.84
				c0.701,0,1.344-0.254,1.84-0.676v0.002c0.01-0.008,0.018-0.016,0.025-0.025c0.07-0.061,0.137-0.125,0.203-0.193
				c0.098-0.082,0.213-0.148,0.346-0.148c0.172,0,0.299,0.031,0.439,0.156c0.555,0.625,1.264,0.938,2.123,0.938
				c0.035,0,0.068-0.004,0.102-0.006c0.611-0.012,1.123-0.156,1.535-0.438c0.43-0.295,0.727-0.625,0.895-0.988
				c0.158-0.346,0.238-0.93,0.246-1.748c0.002-0.037,0.002-0.076,0.002-0.117V9.078c0-0.883-0.086-1.507-0.262-1.869
				S35.041,6.518,34.611,6.224z M28.025,21.479c-0.807,0-1.457-0.652-1.457-1.459c0-0.805,0.65-1.457,1.457-1.457
				c0.805,0,1.457,0.652,1.457,1.457C29.482,20.827,28.83,21.479,28.025,21.479z M33.22,18.374v0.977
				c0,0.316-0.105,0.572-0.314,0.77c-0.264,0.256-0.605,0.355-1.02,0.295c-0.365-0.057-0.789-0.318-1.078-0.801V9.056
				c0.34-0.455,0.699-0.711,1.078-0.771c0.414-0.06,0.756,0.04,1.02,0.296c0.209,0.197,0.314,0.454,0.314,0.77V18.374z"/>
			<path fill="#231F20" d="M39.636,6.78V5.881h-2.533v16.885h2.533V9.026c0.369-0.452,0.748-0.709,1.135-0.768
				c0.43-0.061,0.789,0.039,1.082,0.295V5.723C40.939,5.723,40.201,6.076,39.636,6.78z"/>
		</g>
	</g>
</g>
</svg>
