<?xml version="1.0" encoding="utf-8"?>
<!-- Generator: Adobe Illustrator 16.0.0, SVG Export Plug-In . SVG Version: 6.00 Build 0)  -->
<!DOCTYPE svg PUBLIC "-//W3C//DTD SVG 1.1//EN" "http://www.w3.org/Graphics/SVG/1.1/DTD/svg11.dtd">
<svg version="1.1" xmlns="http://www.w3.org/2000/svg" xmlns:xlink="http://www.w3.org/1999/xlink" x="0px" y="0px"
	 width="43.379px" height="28.345px" viewBox="0 0 43.379 28.345" enable-background="new 0 0 43.379 28.345" xml:space="preserve">
<g id="Layer_11">
	<rect fill="none" width="43.379" height="28.345"/>
</g>
<g id="cgi">
	<path fill="#010101" d="M9.651,19.27c0,1.056-0.367,1.956-1.099,2.702c-0.731,0.746-1.623,1.118-2.67,1.118
		c-1.049,0-1.954-0.37-2.715-1.108c-0.763-0.739-1.143-1.63-1.143-2.675V9.7c0-1.044,0.373-1.936,1.117-2.674
		c0.744-0.739,1.644-1.11,2.695-1.11c1.054,0,1.952,0.371,2.697,1.11C9.278,7.765,9.651,8.656,9.651,9.7v5.999H7.09V9.61
		c0-0.337-0.124-0.629-0.369-0.877C6.476,8.486,6.187,8.362,5.853,8.362c-0.354,0-0.654,0.125-0.899,0.372
		C4.708,8.98,4.585,9.273,4.585,9.611v9.785c0,0.338,0.123,0.631,0.368,0.879c0.246,0.246,0.545,0.371,0.899,0.371
		c0.334,0,0.623-0.128,0.868-0.383c0.245-0.256,0.369-0.558,0.369-0.907v-0.98h2.562V19.27z"/>
	<path fill="#010101" d="M16.283,6.915l0.006-0.004v0.001L16.283,6.915L16.283,6.915z M16.289,19.797
		c-0.374,0.456-0.756,0.712-1.149,0.771c-0.432,0.061-0.785-0.039-1.06-0.295c-0.197-0.199-0.294-0.456-0.294-0.773v-9.055V9.465
		c0-0.316,0.122-0.589,0.368-0.816c0.245-0.227,0.584-0.312,1.017-0.252c0.392,0.06,0.765,0.317,1.119,0.772V19.797L16.289,19.797z
		 M16.289,5.975V6.91c-0.57-0.691-1.317-1.035-2.239-1.035c-0.647,0-1.188,0.146-1.62,0.442c-0.432,0.296-0.731,0.627-0.898,0.992
		c-0.166,0.363-0.249,0.986-0.25,1.865l-0.001,0v10.6c0,0.888,0.083,1.516,0.25,1.88c0.167,0.367,0.466,0.697,0.898,0.994
		c0.431,0.295,0.973,0.442,1.62,0.442c0.922,0,1.669-0.345,2.239-1.036v1.736c0,0.365-0.124,0.67-0.369,0.914
		c-0.246,0.243-0.544,0.366-0.897,0.366c-0.354,0-0.648-0.126-0.884-0.375c-0.235-0.253-0.353-0.549-0.353-0.89h-2.504
		c0,1.011,0.361,1.833,1.083,2.468c0.723,0.633,1.618,0.952,2.687,0.952c1.068,0,1.969-0.314,2.702-0.941
		c0.73-0.628,1.097-1.459,1.097-2.494V5.975H16.289z"/>
	<path fill="#010101" d="M23.137,22.974h-2.562V5.975h2.562V22.974L23.137,22.974z M23.137,4.229h-2.562V1.725h2.562V4.229z"/>
	<g>
		<path fill="#010101" d="M39.246,6.863V5.959h-2.545v16.969h2.545V9.119c0.371-0.454,0.752-0.711,1.143-0.771
			c0.429-0.06,0.791,0.04,1.084,0.297V5.8C40.555,5.8,39.813,6.155,39.246,6.863z"/>
		<path fill="#010101" d="M34.197,6.303c-0.432-0.296-0.97-0.444-1.618-0.444c-0.921,0-1.656,0.343-2.205,1.029V1.719h-2.573v14.695
			c-0.021,0.424-0.188,0.803-0.659,0.933c-1.369,0.21-2.417,1.392-2.417,2.82c0,1.576,1.277,2.854,2.854,2.854
			c0.706,0,1.351-0.256,1.85-0.68c0,0,0.001,0.001,0.001,0.001c0.008-0.007,0.016-0.015,0.024-0.023
			c0.071-0.062,0.139-0.127,0.203-0.196c0.099-0.083,0.213-0.149,0.349-0.149c0.173,0,0.298,0.031,0.441,0.157
			c0.558,0.627,1.27,0.942,2.134,0.942c0.035,0,0.068-0.004,0.103-0.005c0.613-0.011,1.128-0.158,1.542-0.44
			c0.433-0.296,0.731-0.627,0.898-0.993c0.159-0.347,0.241-0.935,0.249-1.756c0.001-0.039,0.002-0.078,0.002-0.119V9.172
			c0-0.887-0.088-1.514-0.265-1.878C34.931,6.929,34.628,6.598,34.197,6.303z M27.579,21.633c-0.809,0-1.464-0.656-1.464-1.466
			c0-0.809,0.655-1.465,1.464-1.465s1.465,0.656,1.465,1.465C29.043,20.977,28.388,21.633,27.579,21.633z M32.799,18.513v0.98
			c0,0.317-0.105,0.575-0.314,0.773c-0.267,0.259-0.608,0.357-1.026,0.297c-0.367-0.058-0.792-0.321-1.084-0.805V9.148
			c0.343-0.457,0.704-0.713,1.084-0.774c0.417-0.06,0.759,0.04,1.026,0.298c0.209,0.199,0.314,0.456,0.314,0.773V18.513z"/>
	</g>
</g>
</svg>
