<svg id="Camada_1" data-name="Camada 1" xmlns="http://www.w3.org/2000/svg" viewBox="0 0 315.75 209.42"><defs><style>.cls-1{fill:#fff;}</style></defs><path class="cls-1" d="M251.86,46.87c-3.2-2.2-7.3-3.3-12.2-3.3-6.9,0-12.5,2.6-16.6,7.8v-39h-19.4v110.8c-.2,3.2-1.4,6.1-5,7.1a21.53,21.53,0,0,0,3.3,42.8,21.21,21.21,0,0,0,13.9-5.1h0l.2-.2,1.5-1.5a4.09,4.09,0,0,1,2.6-1.1,4.26,4.26,0,0,1,3.3,1.2,20.72,20.72,0,0,0,16.1,7.1h.8a21.15,21.15,0,0,0,11.6-3.3,18.4,18.4,0,0,0,6.8-7.5c1.2-2.6,1.8-7,1.9-13.3V68.47c0-6.7-.7-11.4-2-14.2A18.11,18.11,0,0,0,251.86,46.87ZM202,162.47a11.05,11.05,0,1,1,11.1-11.1A11.14,11.14,0,0,1,202,162.47Zm39.4-23.5v7.4a7.54,7.54,0,0,1-2.4,5.8,8.67,8.67,0,0,1-7.7,2.2c-2.8-.4-6-2.4-8.2-6.1V68.37c2.6-3.4,5.3-5.4,8.2-5.8a8.58,8.58,0,0,1,7.7,2.2,7.54,7.54,0,0,1,2.4,5.8Z"/><path class="cls-1" d="M290,51.07v-6.8h-19.2v128H290V68.07c2.8-3.4,5.7-5.4,8.6-5.8a9.8,9.8,0,0,1,8.2,2.2V43A21,21,0,0,0,290,51.07Z"/><path class="cls-1" d="M57.56,47.57a21,21,0,0,0-12.1-3.3A20.39,20.39,0,0,0,29,52v-6.8H9.76v127.1H29V68.87c2.6-3.4,5.3-5.3,8.2-5.8a9,9,0,0,1,7.7,2.2,7.54,7.54,0,0,1,2.4,5.8v101.1h19.1V69.07c0-6.6-.7-11.3-2-14.1A19.62,19.62,0,0,0,57.56,47.57Z"/><rect class="cls-1" x="80.16" y="13.37" width="19.1" height="18.7"/><rect class="cls-1" x="80.16" y="45.07" width="19.1" height="127.1"/><path class="cls-1" d="M139.16,44.27a27.79,27.79,0,0,0-20.2,8.3,27,27,0,0,0-8.3,20.1v72.1a27.14,27.14,0,0,0,8.5,20.1,28.34,28.34,0,0,0,20.3,8.3,27,27,0,0,0,20-8.4,27.69,27.69,0,0,0,8.2-20.2v-6.7h-19.2v7.3a9.6,9.6,0,0,1-2.7,6.8,8.74,8.74,0,0,1-6.5,2.9,8.91,8.91,0,0,1-6.7-2.8,9.41,9.41,0,0,1-2.8-6.6V71.87a9,9,0,0,1,2.8-6.6,8.91,8.91,0,0,1,6.7-2.8,8.64,8.64,0,0,1,6.5,2.8,9.31,9.31,0,0,1,2.7,6.6v45.8h19.2v-45a28.34,28.34,0,0,0-28.5-28.4Z"/></svg>